<svg height="512pt" viewBox="0 -114 512.001 512" width="512pt" xmlns="http://www.w3.org/2000/svg"><path d="m90.066406 149.152344h150.933594v37.527344h-150.933594zm0 0"/><path d="m241 119.15625v-119.15625h-150.800781c-31.121094 0-56.4375 25.320312-56.4375 56.4375v14.976562c27.265625 1.675782 49.671875 21.632813 55.066406 47.742188zm0 0"/><path d="m478.238281 56.4375c0-31.117188-25.316406-56.4375-56.4375-56.4375h-150.800781v119.15625h152.175781c5.394531-26.109375 27.796875-46.0625 55.0625-47.742188zm0 0"/><path d="m271 149.152344h150.933594v37.527344h-150.933594zm0 0"/><path d="m90.066406 216.675781h331.867188v37.523438h-331.867188zm0 0"/><path d="m60.066406 131.320312c0-16.5625-13.472656-30.035156-30.03125-30.035156-16.5625 0-30.035156 13.472656-30.035156 30.035156v122.878907h30.046875v30.011719h30v-.011719zm0 0"/><path d="m481.953125 254.199219h30.046875v-122.878907c0-16.5625-13.472656-30.035156-30.035156-30.035156-16.558594 0-30.03125 13.472656-30.03125 30.035156l.023437 152.878907v.011719h29.996094zm0 0"/></svg>