<svg height="461pt" viewBox="-94 0 461 461.592" width="461pt" xmlns="http://www.w3.org/2000/svg"><path d="m86.207031 35.558594-9.191406-22.175782c-11.261719 5.488282-21.648437 12.457032-30.910156 20.707032l16.957031 16.957031c7.007812-6.078125 14.777344-11.277344 23.144531-15.488281zm0 0"/><path d="m125.441406 320.046875c-8.578125 13.03125-13.144531 28.144531-13.144531 43.761719 0 21.246094 8.863281 42.0625 24 56.925781 15.136719-14.855469 24-35.671875 24-56.925781 0-15.617188-4.570313-30.71875-13.144531-43.753906l-10.855469 10.847656zm0 0"/><path d="m185.152344 236.214844 12.015625 20.816406c4.785156-2.40625 9.441406-5.015625 13.878906-7.953125l-12-20.78125c-4.390625 3-9.078125 5.574219-13.894531 7.917969zm0 0"/><path d="m170.199219 242.320312c-10.703125 3.40625-22.085938 5.273438-33.902344 5.273438s-23.199219-1.867188-33.898437-5.273438l-12.167969 21.070313c14.410156 5.210937 29.882812 8.203125 46.066406 8.203125 16.191406 0 31.65625-2.992188 46.070313-8.210938zm0 0"/><path d="m128.296875 24v-24c-12.722656.742188-24.960937 3.207031-36.511719 7.230469l9.183594 22.167969c8.6875-2.902344 17.847656-4.726563 27.328125-5.398438zm0 0"/><path d="m14.089844 194.878906c8.359375 17.160156 20.125 32.335938 34.558594 44.535156l12.253906-21.238281c-10.070313-9.207031-18.445313-20.183593-24.636719-32.488281zm0 0"/><path d="m61.535156 249.089844c4.441406 2.933594 9.105469 5.542968 13.890625 7.949218l12.015625-20.816406c-4.816406-2.351562-9.503906-4.925781-13.90625-7.917968zm0 0"/><path d="m271.886719 143.59375h-24c-.671875 9.476562-2.496094 18.636719-5.390625 27.328125l22.167968 9.183594c4.015626-11.554688 6.480469-23.792969 7.222657-36.511719zm0 0"/><path d="m211.6875 218.175781 12.257812 21.238281c14.429688-12.199218 26.199219-27.382812 34.558594-44.535156l-22.175781-9.191406c-6.191406 12.304688-14.566406 23.289062-24.640625 32.488281zm0 0"/><path d="m247.886719 127.59375h24c-.742188-12.722656-3.207031-24.960938-7.230469-36.515625l-22.167969 9.1875c2.902344 8.6875 4.726563 17.847656 5.398438 27.328125zm0 0"/><path d="m236.328125 85.503906 22.175781-9.191406c-5.488281-11.265625-12.457031-21.648438-20.703125-30.914062l-16.960937 16.960937c6.082031 7.007813 11.28125 14.777344 15.488281 23.144531zm0 0"/><path d="m180.808594 7.222656c-11.550782-4.015625-23.792969-6.480468-36.511719-7.222656v24c9.480469.671875 18.640625 2.496094 27.328125 5.390625zm0 0"/><path d="m51.753906 62.359375-16.960937-16.960937c-8.25 9.273437-15.21875 19.648437-20.703125 30.914062l22.175781 9.191406c4.207031-8.367187 9.40625-16.136718 15.488281-23.144531zm0 0"/><path d="m226.496094 34.089844c-9.273438-8.25-19.648438-15.21875-30.910156-20.707032l-9.195313 22.175782c8.371094 4.210937 16.128906 9.410156 23.144531 15.488281zm0 0"/><path d="m136.296875 287.59375c-7.679687 0-15.167969-.761719-22.554687-1.867188l22.554687 22.554688 22.550781-22.554688c-7.382812 1.113282-14.871094 1.867188-22.550781 1.867188zm0 0"/><path d="m170.246094 296.953125-11.535156 11.535156 1.527343 2.296875c10.503907 15.75 16.058594 34.078125 16.058594 53.023438 0 4.925781-.535156 9.800781-1.304687 14.640625l14.511718 9.671875c1.792969-7.929688 2.792969-16.074219 2.792969-24.3125 0-22.105469-6.488281-43.503906-18.746094-61.898438zm0 0"/><path d="m164.785156 408.769531 11.75 11.75c3.113282-5.261719 5.839844-10.742187 8.066406-16.449219l-13.632812-9.085937c-1.664062 4.769531-3.816406 9.335937-6.183594 13.785156zm0 0"/><path d="m141.375 437.664062-5.078125 4.183594-5.082031-4.175781c-5.4375-4.472656-10.328125-9.542969-14.605469-15.070313l-11.363281 11.359376c5.722656 7.09375 12.273437 13.566406 19.683594 19.117187l11.367187 8.515625 11.367187-8.523438c7.40625-5.550781 13.953126-12.023437 19.679688-19.117187l-11.351562-11.351563c-4.289063 5.519532-9.175782 10.589844-14.617188 15.0625zm0 0"/><path d="m263.191406 238.136719-7.039062-9.394531c-10.632813 13.648437-23.496094 25.425781-38.105469 34.792968l3.144531 1.578125c15.847656 7.917969 27.234375 21.734375 32.234375 38.046875l5.535157-5.535156c8.597656-8.609375 13.335937-20.039062 13.335937-32.191406 0-9.785156-3.234375-19.480469-9.105469-27.296875zm-6.894531 33.457031h-16v-16h16zm0 0"/><path d="m101.632812 394.984375-13.640624 9.085937c2.214843 5.707032 4.945312 11.175782 8.0625 16.449219l11.761718-11.757812c-2.375-4.449219-4.519531-9.019531-6.183594-13.777344zm0 0"/><path d="m214.039062 279.414062-13-6.503906c-3.816406 1.808594-7.703124 3.449219-11.6875 4.9375l-7.566406 7.566406 5.078125 7.617188c14.015625 21.03125 21.433594 45.496094 21.433594 70.777344 0 1.695312-.234375 3.359375-.296875 5.039062l11.152344-7.433594c13.238281-8.839843 21.144531-23.605468 21.144531-39.527343 0-18.101563-10.066406-34.375-26.257813-42.472657zm10.257813 40.179688h-16v-16h16zm0 0"/><path d="m85.726562 293.03125 5.082032-7.617188-7.570313-7.566406c-3.972656-1.488281-7.871093-3.128906-11.6875-4.9375l-13 6.503906c-16.191406 8.097657-26.253906 24.371094-26.253906 42.472657 0 15.914062 7.902344 30.6875 21.152344 39.519531l11.152343 7.433594c-.074218-1.679688-.304687-3.34375-.304687-5.03125 0-25.28125 7.414063-49.746094 21.429687-70.777344zm-37.429687 26.5625v-16h16v16zm0 0"/><path d="m30.097656 170.921875c-2.898437-8.691406-4.722656-17.851563-5.394531-27.328125h-24c.746094 12.71875 3.207031 24.957031 7.234375 36.511719zm0 0"/><path d="m51.398438 265.105469 3.144531-1.578125c-14.605469-9.367188-27.472657-21.144532-38.101563-34.792969l-7.042968 9.394531c-5.871094 7.824219-9.101563 17.519532-9.101563 27.304688 0 12.160156 4.734375 23.582031 13.328125 32.175781l5.535156 5.535156c5.007813-16.3125 16.390625-30.121093 32.238282-38.039062zm-19.101563 6.488281h-16v-16h16zm0 0"/><path d="m30.097656 100.265625-22.167968-9.1875c-4.019532 11.554687-6.480469 23.792969-7.234376 36.515625h24c.679688-9.480469 2.503907-18.640625 5.402344-27.328125zm0 0"/><path d="m96.296875 363.808594c0-18.9375 5.550781-37.265625 16.054687-53.023438l1.527344-2.296875-11.535156-11.535156-3.304688 4.949219c-12.253906 18.394531-18.742187 39.800781-18.742187 61.90625 0 8.246094 1 16.382812 2.792969 24.3125l14.511718-9.671875c-.769531-4.839844-1.304687-9.722657-1.304687-14.640625zm0 0"/></svg>