<svg height="512pt" viewBox="-46 0 512 512.00082" width="512pt" xmlns="http://www.w3.org/2000/svg"><path d="m405.042969 90.957031h-60.007813c-4.367187 0-8.507812 1.9375-11.308594 5.289063l-95.804687 114.722656h39.003906l75.007813-90.007812h53.109375c8.402343 0 15-6.601563 15-15.003907 0-8.398437-6.597657-15-15-15zm0 0"/><path d="m45.003906 421.992188c-24.816406 0-45.003906 20.1875-45.003906 45.003906s20.1875 45.003906 45.003906 45.003906 45.003906-20.1875 45.003906-45.003906c0-8.085938-2.3125-15.574219-6.0625-22.140625l46.269532-54.167969c-12.90625 0-24.90625-1.800781-35.40625-4.800781l-33.277344 39.34375c-5.128906-2.035157-10.679688-3.238281-16.527344-3.238281zm0 0"/><path d="m306.09375 444.859375c-3.746094 6.5625-6.0625 14.050781-6.0625 22.136719 0 24.816406 20.1875 45.003906 45.003906 45.003906s45.003906-20.1875 45.003906-45.003906-20.1875-45.003906-45.003906-45.003906c-5.847656 0-11.398437 1.203124-16.527344 3.238281l-33.277343-39.34375c-10.5 3-22.5 4.800781-35.40625 4.800781zm0 0"/><path d="m4.976562 180.964844h153.828126l-108.773438-108.773438zm0 0"/><path d="m210.023438 180.964844v-166.015625c0-10.789063-11.339844-17.75-20.746094-13.859375l-118.03125 49.890625 129.984375 129.984375zm0 0"/><path d="m195.019531 330.980469c-3.898437 0-7.800781-.601563-11.402343-1.800781l-50.347657 57.988281c.824219 1.796875.925781 2.019531 1.746094 3.820312h120.011719c.820312-1.800781.921875-2.023437 1.742187-3.820312l-50.347656-57.988281c-3.601563 1.203124-7.5 1.800781-11.402344 1.800781zm0 0"/><path d="m195.019531 300.976562c9.023438 0 15.003907-7.101562 15.003907-15 0-8.164062-6.082032-15-15.003907-15-8.402343 0-15 6.597657-15 15 0 7.863282 5.941407 15 15 15zm0 0"/><path d="m94.808594 385.886719 63.90625-73.808594c-5.691406-7.191406-8.691406-16.175781-8.699219-26.0625-.023437-26.15625 24.707031-48.074219 50.644531-44.691406 3.34375.4375 6.566406 1.292969 9.664063 2.648437l27.601562-33.003906h-237.625c1.5 70.507812 15.898438 154.515625 94.507813 174.917969zm0 0"/><path d="m240.023438 285.976562c0 9.898438-2.996094 18.902344-8.699219 26.101563l63.90625 73.808594c72.898437-18.921875 90.578125-92.546875 93.957031-159.375.429688-8.492188-6.519531-15.542969-15.027344-15.542969h-97.234375l-43.5 52.207031c4.199219 6.597657 6.597657 14.398438 6.597657 22.800781zm0 0"/></svg>