<svg height="512pt" viewBox="0 -105 512 512" width="512pt" xmlns="http://www.w3.org/2000/svg"><path d="m63.785156 301.296875h-30v-47.839844l30 15.011719zm0 0" fill="#07485e"/><path d="m478.214844 301.296875h-30v-32.828125l30-15.011719zm0 0" fill="#04303e"/><path d="m256 268.46875h192.214844l31.890625-63.785156-244.121094-20.015625zm0 0" fill="#a05f4b"/><path d="m31.894531 204.683594 31.890625 63.785156h192.214844v-83.800781zm0 0" fill="#c9885b"/><path d="m256 204.683594h224.105469v-63.785156l-244.121094-20.015626zm0 0" fill="#5b362a"/><path d="m256 120.882812-224.105469 20.015626v63.785156h224.105469zm0 0" fill="#a05f4b"/><path d="m412.621094 0h-156.621094l-20.015625 70.449219 20.015625 70.449219h224.105469v-73.414063c0-37.269531-30.210938-67.484375-67.484375-67.484375zm0 0" fill="#a05f4b"/><path d="m256 0h-156.621094c-37.273437 0-67.484375 30.214844-67.484375 67.484375v73.414063h224.105469zm0 0" fill="#c9885b"/><path d="m512 127.570312v140.898438h-63.785156v-140.898438c0-17.613281 14.277344-31.890624 31.894531-31.890624 17.613281 0 31.890625 14.277343 31.890625 31.890624zm0 0" fill="#c9885b"/><path d="m63.785156 127.570312v140.898438h-63.785156v-140.898438c0-17.613281 14.277344-31.890624 31.894531-31.890624 17.613281 0 31.890625 14.277343 31.890625 31.890624zm0 0" fill="#e1bb78"/></svg>